<mxfile host="app.diagrams.net" modified="2023-05-03T09:19:06.768Z" agent="Mozilla/5.0 (Windows NT 10.0; Win64; x64) AppleWebKit/537.36 (KHTML, like Gecko) Chrome/112.0.0.0 Safari/537.36" etag="70eY2nGKf88CDUC2wnuR" version="21.1.5" type="device">
  <diagram id="C5RBs43oDa-KdzZeNtuy" name="Page-1">
    <mxGraphModel dx="880" dy="403" grid="1" gridSize="10" guides="1" tooltips="1" connect="1" arrows="1" fold="1" page="1" pageScale="1" pageWidth="827" pageHeight="1169" math="0" shadow="0">
      <root>
        <mxCell id="WIyWlLk6GJQsqaUBKTNV-0" />
        <mxCell id="WIyWlLk6GJQsqaUBKTNV-1" parent="WIyWlLk6GJQsqaUBKTNV-0" />
        <mxCell id="iKl5GgZeDcTs2LutQjbo-2" value="" style="edgeStyle=orthogonalEdgeStyle;rounded=0;orthogonalLoop=1;jettySize=auto;html=1;" parent="WIyWlLk6GJQsqaUBKTNV-1" source="iKl5GgZeDcTs2LutQjbo-0" target="iKl5GgZeDcTs2LutQjbo-1" edge="1">
          <mxGeometry relative="1" as="geometry" />
        </mxCell>
        <mxCell id="iKl5GgZeDcTs2LutQjbo-0" value="Start" style="ellipse;whiteSpace=wrap;html=1;" parent="WIyWlLk6GJQsqaUBKTNV-1" vertex="1">
          <mxGeometry x="390" y="30" width="120" height="40" as="geometry" />
        </mxCell>
        <mxCell id="iKl5GgZeDcTs2LutQjbo-4" value="" style="edgeStyle=orthogonalEdgeStyle;rounded=0;orthogonalLoop=1;jettySize=auto;html=1;" parent="WIyWlLk6GJQsqaUBKTNV-1" source="iKl5GgZeDcTs2LutQjbo-1" target="iKl5GgZeDcTs2LutQjbo-3" edge="1">
          <mxGeometry relative="1" as="geometry" />
        </mxCell>
        <mxCell id="iKl5GgZeDcTs2LutQjbo-1" value="Read A :=&amp;nbsp; [a&lt;sub&gt;ij&lt;/sub&gt;]&lt;sub&gt;m×n&lt;br&gt;&lt;/sub&gt;" style="shape=parallelogram;perimeter=parallelogramPerimeter;whiteSpace=wrap;html=1;fixedSize=1;size=20;" parent="WIyWlLk6GJQsqaUBKTNV-1" vertex="1">
          <mxGeometry x="380" y="100" width="140" height="40" as="geometry" />
        </mxCell>
        <mxCell id="iKl5GgZeDcTs2LutQjbo-6" value="" style="edgeStyle=orthogonalEdgeStyle;rounded=0;orthogonalLoop=1;jettySize=auto;html=1;" parent="WIyWlLk6GJQsqaUBKTNV-1" source="iKl5GgZeDcTs2LutQjbo-3" target="iKl5GgZeDcTs2LutQjbo-5" edge="1">
          <mxGeometry relative="1" as="geometry" />
        </mxCell>
        <mxCell id="iKl5GgZeDcTs2LutQjbo-3" value="Convert from uint8 to double form" style="whiteSpace=wrap;html=1;" parent="WIyWlLk6GJQsqaUBKTNV-1" vertex="1">
          <mxGeometry x="350" y="170" width="200" height="40" as="geometry" />
        </mxCell>
        <mxCell id="iKl5GgZeDcTs2LutQjbo-8" value="" style="edgeStyle=orthogonalEdgeStyle;rounded=0;orthogonalLoop=1;jettySize=auto;html=1;" parent="WIyWlLk6GJQsqaUBKTNV-1" source="iKl5GgZeDcTs2LutQjbo-5" target="iKl5GgZeDcTs2LutQjbo-7" edge="1">
          <mxGeometry relative="1" as="geometry" />
        </mxCell>
        <mxCell id="iKl5GgZeDcTs2LutQjbo-45" value="DONE" style="edgeStyle=orthogonalEdgeStyle;rounded=0;orthogonalLoop=1;jettySize=auto;html=1;entryX=0;entryY=0.5;entryDx=0;entryDy=0;exitX=0;exitY=0.5;exitDx=0;exitDy=0;" parent="WIyWlLk6GJQsqaUBKTNV-1" source="iKl5GgZeDcTs2LutQjbo-5" target="iKl5GgZeDcTs2LutQjbo-46" edge="1">
          <mxGeometry x="-0.9669" relative="1" as="geometry">
            <mxPoint x="160" y="1114" as="targetPoint" />
            <Array as="points">
              <mxPoint x="120" y="260" />
              <mxPoint x="120" y="930" />
            </Array>
            <mxPoint as="offset" />
          </mxGeometry>
        </mxCell>
        <mxCell id="iKl5GgZeDcTs2LutQjbo-5" value="For t from 1 to 5" style="shape=hexagon;perimeter=hexagonPerimeter2;whiteSpace=wrap;html=1;fixedSize=1;" parent="WIyWlLk6GJQsqaUBKTNV-1" vertex="1">
          <mxGeometry x="390" y="240" width="120" height="40" as="geometry" />
        </mxCell>
        <mxCell id="iKl5GgZeDcTs2LutQjbo-10" value="" style="edgeStyle=orthogonalEdgeStyle;rounded=0;orthogonalLoop=1;jettySize=auto;html=1;" parent="WIyWlLk6GJQsqaUBKTNV-1" source="iKl5GgZeDcTs2LutQjbo-7" target="iKl5GgZeDcTs2LutQjbo-9" edge="1">
          <mxGeometry relative="1" as="geometry" />
        </mxCell>
        <mxCell id="iKl5GgZeDcTs2LutQjbo-7" value="Compute the binary matrix B := [b&lt;sub style=&quot;border-color: var(--border-color);&quot;&gt;ij&lt;/sub&gt;]&lt;sub style=&quot;border-color: var(--border-color);&quot;&gt;m×n&amp;nbsp;&lt;/sub&gt;of A" style="whiteSpace=wrap;html=1;" parent="WIyWlLk6GJQsqaUBKTNV-1" vertex="1">
          <mxGeometry x="330" y="310" width="240" height="40" as="geometry" />
        </mxCell>
        <mxCell id="iKl5GgZeDcTs2LutQjbo-13" value="" style="edgeStyle=orthogonalEdgeStyle;rounded=0;orthogonalLoop=1;jettySize=auto;html=1;" parent="WIyWlLk6GJQsqaUBKTNV-1" source="iKl5GgZeDcTs2LutQjbo-9" target="iKl5GgZeDcTs2LutQjbo-12" edge="1">
          <mxGeometry relative="1" as="geometry" />
        </mxCell>
        <mxCell id="iKl5GgZeDcTs2LutQjbo-9" value="&lt;font style=&quot;font-size: 12px;&quot;&gt;Compute 𝐴̿t&amp;nbsp;and 𝐵̿&lt;sub&gt;t&lt;/sub&gt;&lt;/font&gt;" style="whiteSpace=wrap;html=1;" parent="WIyWlLk6GJQsqaUBKTNV-1" vertex="1">
          <mxGeometry x="380" y="380" width="140" height="40" as="geometry" />
        </mxCell>
        <mxCell id="iKl5GgZeDcTs2LutQjbo-15" value="" style="edgeStyle=orthogonalEdgeStyle;rounded=0;orthogonalLoop=1;jettySize=auto;html=1;" parent="WIyWlLk6GJQsqaUBKTNV-1" source="iKl5GgZeDcTs2LutQjbo-12" target="iKl5GgZeDcTs2LutQjbo-14" edge="1">
          <mxGeometry relative="1" as="geometry" />
        </mxCell>
        <mxCell id="iKl5GgZeDcTs2LutQjbo-12" value="For all i and j" style="shape=hexagon;perimeter=hexagonPerimeter2;whiteSpace=wrap;html=1;fixedSize=1;" parent="WIyWlLk6GJQsqaUBKTNV-1" vertex="1">
          <mxGeometry x="280" y="450" width="340" height="40" as="geometry" />
        </mxCell>
        <mxCell id="iKl5GgZeDcTs2LutQjbo-28" value="YES" style="edgeStyle=orthogonalEdgeStyle;rounded=0;orthogonalLoop=1;jettySize=auto;html=1;exitX=0.5;exitY=1;exitDx=0;exitDy=0;entryX=0.5;entryY=0;entryDx=0;entryDy=0;" parent="WIyWlLk6GJQsqaUBKTNV-1" source="iKl5GgZeDcTs2LutQjbo-14" target="iKl5GgZeDcTs2LutQjbo-17" edge="1">
          <mxGeometry x="-0.5" y="20" relative="1" as="geometry">
            <mxPoint as="offset" />
          </mxGeometry>
        </mxCell>
        <mxCell id="iKl5GgZeDcTs2LutQjbo-14" value="b&lt;sub&gt;ij&lt;/sub&gt;&amp;nbsp;= 0" style="rhombus;whiteSpace=wrap;html=1;" parent="WIyWlLk6GJQsqaUBKTNV-1" vertex="1">
          <mxGeometry x="410" y="520" width="80" height="80" as="geometry" />
        </mxCell>
        <mxCell id="iKl5GgZeDcTs2LutQjbo-20" value="" style="edgeStyle=orthogonalEdgeStyle;rounded=0;orthogonalLoop=1;jettySize=auto;html=1;" parent="WIyWlLk6GJQsqaUBKTNV-1" source="iKl5GgZeDcTs2LutQjbo-17" target="iKl5GgZeDcTs2LutQjbo-19" edge="1">
          <mxGeometry relative="1" as="geometry" />
        </mxCell>
        <mxCell id="iKl5GgZeDcTs2LutQjbo-29" style="edgeStyle=orthogonalEdgeStyle;rounded=0;orthogonalLoop=1;jettySize=auto;html=1;" parent="WIyWlLk6GJQsqaUBKTNV-1" source="iKl5GgZeDcTs2LutQjbo-17" edge="1">
          <mxGeometry relative="1" as="geometry">
            <mxPoint x="220" y="560" as="targetPoint" />
            <Array as="points">
              <mxPoint x="220" y="650" />
            </Array>
          </mxGeometry>
        </mxCell>
        <mxCell id="iKl5GgZeDcTs2LutQjbo-30" value="DONE" style="edgeLabel;html=1;align=center;verticalAlign=middle;resizable=0;points=[];" parent="iKl5GgZeDcTs2LutQjbo-29" vertex="1" connectable="0">
          <mxGeometry x="-0.6827" relative="1" as="geometry">
            <mxPoint x="11" as="offset" />
          </mxGeometry>
        </mxCell>
        <mxCell id="iKl5GgZeDcTs2LutQjbo-17" value="For k from 1 to t" style="shape=hexagon;perimeter=hexagonPerimeter2;whiteSpace=wrap;html=1;fixedSize=1;" parent="WIyWlLk6GJQsqaUBKTNV-1" vertex="1">
          <mxGeometry x="390" y="630" width="120" height="40" as="geometry" />
        </mxCell>
        <mxCell id="iKl5GgZeDcTs2LutQjbo-23" value="YES" style="edgeStyle=orthogonalEdgeStyle;rounded=0;orthogonalLoop=1;jettySize=auto;html=1;" parent="WIyWlLk6GJQsqaUBKTNV-1" source="iKl5GgZeDcTs2LutQjbo-19" target="iKl5GgZeDcTs2LutQjbo-22" edge="1">
          <mxGeometry x="-0.5" y="20" relative="1" as="geometry">
            <mxPoint as="offset" />
          </mxGeometry>
        </mxCell>
        <mxCell id="iKl5GgZeDcTs2LutQjbo-19" value="𝐵&lt;sup&gt;k&lt;/sup&gt;&lt;sub&gt;𝑖𝑗&lt;/sub&gt;&amp;nbsp;≠ [0]" style="rhombus;whiteSpace=wrap;html=1;" parent="WIyWlLk6GJQsqaUBKTNV-1" vertex="1">
          <mxGeometry x="410" y="700" width="80" height="80" as="geometry" />
        </mxCell>
        <mxCell id="iKl5GgZeDcTs2LutQjbo-40" style="edgeStyle=orthogonalEdgeStyle;rounded=0;orthogonalLoop=1;jettySize=auto;html=1;" parent="WIyWlLk6GJQsqaUBKTNV-1" source="iKl5GgZeDcTs2LutQjbo-22" edge="1">
          <mxGeometry relative="1" as="geometry">
            <mxPoint x="220" y="650" as="targetPoint" />
            <Array as="points">
              <mxPoint x="450" y="880" />
              <mxPoint x="220" y="880" />
            </Array>
          </mxGeometry>
        </mxCell>
        <mxCell id="iKl5GgZeDcTs2LutQjbo-22" value="𝑎𝑖𝑗 ← (Riesz mean of 𝐴&lt;sup&gt;k&lt;/sup&gt;&lt;sub&gt;𝑖𝑗&lt;/sub&gt;)" style="whiteSpace=wrap;html=1;" parent="WIyWlLk6GJQsqaUBKTNV-1" vertex="1">
          <mxGeometry x="375" y="810" width="150" height="40" as="geometry" />
        </mxCell>
        <mxCell id="iKl5GgZeDcTs2LutQjbo-31" value="" style="endArrow=classic;html=1;rounded=0;entryX=1;entryY=0.5;entryDx=0;entryDy=0;exitX=1;exitY=0.5;exitDx=0;exitDy=0;" parent="WIyWlLk6GJQsqaUBKTNV-1" source="iKl5GgZeDcTs2LutQjbo-19" target="iKl5GgZeDcTs2LutQjbo-17" edge="1">
          <mxGeometry relative="1" as="geometry">
            <mxPoint x="490" y="879.69" as="sourcePoint" />
            <mxPoint x="590" y="880" as="targetPoint" />
            <Array as="points">
              <mxPoint x="560" y="740" />
              <mxPoint x="560" y="650" />
            </Array>
          </mxGeometry>
        </mxCell>
        <mxCell id="iKl5GgZeDcTs2LutQjbo-32" value="LOOP" style="edgeLabel;resizable=0;html=1;align=center;verticalAlign=middle;" parent="iKl5GgZeDcTs2LutQjbo-31" connectable="0" vertex="1">
          <mxGeometry relative="1" as="geometry">
            <mxPoint x="-20" y="-55" as="offset" />
          </mxGeometry>
        </mxCell>
        <mxCell id="iKl5GgZeDcTs2LutQjbo-33" value="NO" style="edgeLabel;resizable=0;html=1;align=left;verticalAlign=bottom;" parent="iKl5GgZeDcTs2LutQjbo-31" connectable="0" vertex="1">
          <mxGeometry x="-1" relative="1" as="geometry" />
        </mxCell>
        <mxCell id="iKl5GgZeDcTs2LutQjbo-37" value="" style="endArrow=classic;html=1;rounded=0;exitX=0;exitY=0.5;exitDx=0;exitDy=0;entryX=0;entryY=0.5;entryDx=0;entryDy=0;movable=1;resizable=1;rotatable=1;deletable=1;editable=1;locked=0;connectable=1;" parent="WIyWlLk6GJQsqaUBKTNV-1" source="iKl5GgZeDcTs2LutQjbo-14" target="iKl5GgZeDcTs2LutQjbo-12" edge="1">
          <mxGeometry relative="1" as="geometry">
            <mxPoint x="350" y="660" as="sourcePoint" />
            <mxPoint x="510" y="660" as="targetPoint" />
            <Array as="points">
              <mxPoint x="220" y="560" />
              <mxPoint x="220" y="470" />
            </Array>
          </mxGeometry>
        </mxCell>
        <mxCell id="iKl5GgZeDcTs2LutQjbo-38" value="LOOP" style="edgeLabel;resizable=0;html=1;align=center;verticalAlign=middle;" parent="iKl5GgZeDcTs2LutQjbo-37" connectable="0" vertex="1">
          <mxGeometry relative="1" as="geometry">
            <mxPoint x="10" y="-90" as="offset" />
          </mxGeometry>
        </mxCell>
        <mxCell id="iKl5GgZeDcTs2LutQjbo-39" value="NO" style="edgeLabel;resizable=0;html=1;align=left;verticalAlign=bottom;" parent="iKl5GgZeDcTs2LutQjbo-37" connectable="0" vertex="1">
          <mxGeometry x="-1" relative="1" as="geometry">
            <mxPoint x="-20" as="offset" />
          </mxGeometry>
        </mxCell>
        <mxCell id="iKl5GgZeDcTs2LutQjbo-42" value="DONE" style="endArrow=classic;html=1;rounded=0;exitX=1;exitY=0.5;exitDx=0;exitDy=0;entryX=1;entryY=0.5;entryDx=0;entryDy=0;" parent="WIyWlLk6GJQsqaUBKTNV-1" source="iKl5GgZeDcTs2LutQjbo-12" target="iKl5GgZeDcTs2LutQjbo-5" edge="1">
          <mxGeometry x="-0.9231" relative="1" as="geometry">
            <mxPoint x="380" y="460" as="sourcePoint" />
            <mxPoint x="540" y="460" as="targetPoint" />
            <Array as="points">
              <mxPoint x="690" y="470" />
              <mxPoint x="690" y="260" />
            </Array>
            <mxPoint as="offset" />
          </mxGeometry>
        </mxCell>
        <mxCell id="iKl5GgZeDcTs2LutQjbo-43" value="LOOP" style="edgeLabel;resizable=0;html=1;align=center;verticalAlign=middle;" parent="iKl5GgZeDcTs2LutQjbo-42" connectable="0" vertex="1">
          <mxGeometry relative="1" as="geometry">
            <mxPoint x="-150" y="-50" as="offset" />
          </mxGeometry>
        </mxCell>
        <mxCell id="iKl5GgZeDcTs2LutQjbo-50" style="edgeStyle=orthogonalEdgeStyle;rounded=0;orthogonalLoop=1;jettySize=auto;html=1;entryX=0.5;entryY=0;entryDx=0;entryDy=0;" parent="WIyWlLk6GJQsqaUBKTNV-1" source="iKl5GgZeDcTs2LutQjbo-46" target="iKl5GgZeDcTs2LutQjbo-49" edge="1">
          <mxGeometry relative="1" as="geometry">
            <Array as="points" />
          </mxGeometry>
        </mxCell>
        <mxCell id="iKl5GgZeDcTs2LutQjbo-46" value="Convet A from double to uint 8 form" style="rounded=0;whiteSpace=wrap;html=1;" parent="WIyWlLk6GJQsqaUBKTNV-1" vertex="1">
          <mxGeometry x="345" y="910" width="210" height="40" as="geometry" />
        </mxCell>
        <mxCell id="iKl5GgZeDcTs2LutQjbo-49" value="Stop" style="ellipse;whiteSpace=wrap;html=1;" parent="WIyWlLk6GJQsqaUBKTNV-1" vertex="1">
          <mxGeometry x="390" y="980" width="120" height="40" as="geometry" />
        </mxCell>
      </root>
    </mxGraphModel>
  </diagram>
</mxfile>
